<?xml version="1.0" encoding="UTF-8" standalone="no"?><!DOCTYPE svg PUBLIC "-//W3C//DTD SVG 1.1//EN" "http://www.w3.org/Graphics/SVG/1.1/DTD/svg11.dtd"><svg width="100%" height="100%" viewBox="0 0 27 27" version="1.1" xmlns="http://www.w3.org/2000/svg" xmlns:xlink="http://www.w3.org/1999/xlink" xml:space="preserve" xmlns:serif="http://www.serif.com/" style="fill-rule:evenodd;clip-rule:evenodd;stroke-linecap:round;stroke-linejoin:round;stroke-miterlimit:1.5;"><path d="M13.332,1.066c-0.083,-0.065 -0.209,-0.07 -0.373,-0.064c-6.649,0.26 -11.959,5.732 -11.959,12.444c-0,6.874 5.58,12.454 12.454,12.454c6.735,-0 12.221,-5.346 12.446,-12.027c0.005,-0.141 0.02,-0.27 -0.05,-0.341c-0.07,-0.071 -0.37,-0.086 -0.37,-0.086l-11.293,0c-0,0 -0.504,0.031 -0.627,-0.107c-0.122,-0.137 -0.106,-0.719 -0.106,-0.719l-0,-11.232c-0,-0 -0.04,-0.258 -0.122,-0.322Z" style="fill:none;stroke:#1e212b;stroke-width:2px;"/></svg>