<?xml version="1.0" encoding="UTF-8" standalone="no"?><!DOCTYPE svg PUBLIC "-//W3C//DTD SVG 1.1//EN" "http://www.w3.org/Graphics/SVG/1.1/DTD/svg11.dtd"><svg width="100%" height="100%" viewBox="0 0 26 25" version="1.1" xmlns="http://www.w3.org/2000/svg" xmlns:xlink="http://www.w3.org/1999/xlink" xml:space="preserve" xmlns:serif="http://www.serif.com/" style="fill-rule:evenodd;clip-rule:evenodd;stroke-linecap:round;stroke-linejoin:round;stroke-miterlimit:1.5;"><path d="M9.376,23.397c-1.575,-0.041 -5.774,-3.092 -6.299,-4.577c-0.525,-1.485 3.474,-3.336 3.149,-4.334c-0.324,-0.999 -4.647,-0.146 -5.095,-1.656c-0.449,-1.51 1.155,-6.446 2.405,-7.404c1.251,-0.959 4.247,2.272 5.096,1.655c0.849,-0.617 -1.298,-4.465 0,-5.358c1.298,-0.893 6.488,-0.893 7.786,0c1.297,0.893 -0.85,4.741 -0,5.358c0.849,0.617 3.845,-2.614 5.095,-1.655c1.25,0.958 2.854,5.894 2.406,7.404c-0.448,1.51 -4.771,0.657 -5.096,1.656c-0.324,0.998 3.675,2.849 3.15,4.334c-0.525,1.485 -4.724,4.536 -6.299,4.577c-1.575,0.04 -2.099,-4.335 -3.149,-4.335c-1.05,-0 -1.575,4.375 -3.149,4.335Z" style="fill:none;stroke:#1e212b;stroke-width:2.11px;"/></svg>