<?xml version="1.0" encoding="UTF-8" standalone="no"?><!DOCTYPE svg PUBLIC "-//W3C//DTD SVG 1.1//EN" "http://www.w3.org/Graphics/SVG/1.1/DTD/svg11.dtd"><svg width="100%" height="100%" viewBox="0 0 25 24" version="1.1" xmlns="http://www.w3.org/2000/svg" xmlns:xlink="http://www.w3.org/1999/xlink" xml:space="preserve" xmlns:serif="http://www.serif.com/" style="fill-rule:evenodd;clip-rule:evenodd;stroke-miterlimit:1.5;"><path d="M11.701,2.023c-0,0 0.54,-0.396 0.81,-0.396c0.27,0 0.811,0.396 0.811,0.396l10.321,7.199c-0,-0 0.174,0.179 0.207,0.277c0.033,0.099 -0.009,0.314 -0.009,0.314l-4.147,12.253c-0,0 -0.086,0.198 -0.151,0.249c-0.065,0.051 -0.24,0.058 -0.24,0.058l-13.372,-0c-0,-0 -0.323,-0.038 -0.433,-0.118c-0.11,-0.08 -0.228,-0.362 -0.228,-0.362l-4.129,-12.2c-0,0 -0.014,-0.206 0.016,-0.278c0.03,-0.071 0.163,-0.152 0.163,-0.152l10.381,-7.24Z" style="fill:none;stroke:#1e212b;stroke-width:2px;"/></svg>